<?xml version="1.0" encoding="UTF-8" standalone="no"?>
<!-- Generator: Adobe Illustrator 16.0.0, SVG Export Plug-In . SVG Version: 6.00 Build 0)  -->

<svg
   xmlns:dc="http://purl.org/dc/elements/1.1/"
   xmlns:cc="http://creativecommons.org/ns#"
   xmlns:rdf="http://www.w3.org/1999/02/22-rdf-syntax-ns#"
   xmlns:svg="http://www.w3.org/2000/svg"
   xmlns="http://www.w3.org/2000/svg"
   xmlns:sodipodi="http://sodipodi.sourceforge.net/DTD/sodipodi-0.dtd"
   xmlns:inkscape="http://www.inkscape.org/namespaces/inkscape"
   version="1.1"
   id="Capa_1"
   x="0px"
   y="0px"
   width="47px"
   height="47px"
   viewBox="0 0 47 47"
   style="enable-background:new 0 0 47 47;"
   xml:space="preserve"
   sodipodi:docname="estructura-centralizada.svg"
   inkscape:version="0.92.4 5da689c313, 2019-01-14"><metadata
   id="metadata54"><rdf:RDF><cc:Work
       rdf:about=""><dc:format>image/svg+xml</dc:format><dc:type
         rdf:resource="http://purl.org/dc/dcmitype/StillImage" /></cc:Work></rdf:RDF></metadata><defs
   id="defs52"><inkscape:perspective
     sodipodi:type="inkscape:persp3d"
     inkscape:vp_x="36.617679 : 0 : 0"
     inkscape:vp_y="0 : 1000 : 0"
     inkscape:vp_z="34.943613 : 34.943613 : 0"
     inkscape:persp3d-origin="36.17399 : 40.662593 : 1"
     id="perspective4609" /></defs><sodipodi:namedview
   pagecolor="#ffffff"
   bordercolor="#666666"
   borderopacity="1"
   objecttolerance="10"
   gridtolerance="10"
   guidetolerance="10"
   inkscape:pageopacity="0"
   inkscape:pageshadow="2"
   inkscape:window-width="1680"
   inkscape:window-height="976"
   id="namedview50"
   showgrid="false"
   inkscape:zoom="14.202315"
   inkscape:cx="14.024857"
   inkscape:cy="19.74143"
   inkscape:window-x="0"
   inkscape:window-y="0"
   inkscape:window-maximized="1"
   inkscape:current-layer="g4786" />
<g
   id="g17">
	<g
   id="Layer_1_5_">
		<g
   id="g14">
			
			
			
			
			
			
		<g
   id="g4786"><path
     style="stroke-width:0.83644712"
     sodipodi:nodetypes="ccccccsssc"
     inkscape:connector-curvature="0"
     id="path6"
     d="m 43.611281,26.246109 c -1.477169,-0.381664 -2.970907,0.23367 -3.794148,1.417053 L 30.548605,24.08603 c -0.0084,0.03239 -0.01145,0.06441 -0.01963,0.09601 -0.14396,0.557178 -0.346123,1.085495 -0.592872,1.582421 l 9.266906,3.576714 c -0.16517,1.705889 0.921654,3.327494 2.63449,3.770048 1.896674,0.490055 3.828883,-0.648695 4.318935,-2.545369 0.489845,-1.895863 -0.648488,-3.829691 -2.54516,-4.319744 z" /><circle
     style="stroke-width:0.83644712"
     id="circle12"
     r="6.0818071"
     cy="22.457327"
     cx="24.206657" /><path
     style="stroke-width:1.01286387"
     sodipodi:nodetypes="ccssssccc"
     inkscape:connector-curvature="0"
     id="path4"
     d="M 19.5257,25.260171 7.8382212,35.799318 C 7.5118513,35.578578 7.1625603,35.382312 6.7707391,35.254193 4.5112696,34.515387 2.0875504,35.74545 1.3500031,38.00107 0.61277029,40.255726 1.84187,42.679131 4.1013408,43.417937 6.3569587,44.155484 8.7790861,42.927032 9.5166335,40.671413 9.8827317,39.551787 9.762066,38.392348 9.273776,37.415343 L 20.944035,26.889747 C 20.410175,26.400823 19.934917,25.853268 19.5257,25.260171 Z" /><path
     style="stroke-width:0.83644712"
     sodipodi:nodetypes="ccccsccccc"
     inkscape:connector-curvature="0"
     id="path2-6"
     d="M 21.763602,16.319581 17.271838,8.4394656 c 0.417701,-0.398992 0.754183,-0.8937258 0.939889,-1.4833047 0.588528,-1.8684622 -0.448216,-3.8586042 -2.317479,-4.4473804 -1.86926,-0.58878 -3.861542,0.4464118 -4.45032,2.3156728 -0.58878,1.8692617 0.450105,3.8609545 2.319367,4.4497308 0.658988,0.207569 1.330332,0.2032944 1.95303,0.041637 l 4.489328,7.8767149 c 0.488141,-0.346992 1.008097,-0.641866 1.557949,-0.872953 z" /><circle
     r="1.2546706"
     cy="5.7867489"
     cx="14.717446"
     style="fill:#000000;stroke:none;stroke-width:0.83644712"
     id="path4712" /><path
     style="stroke-width:1.01286387"
     sodipodi:nodetypes="ccssssccc"
     inkscape:connector-curvature="0"
     id="path4-6"
     d="m 24.665143,23.448727 6.076708,-4.450663 c 0.306093,0.248095 0.637135,0.473785 1.016431,0.635254 2.187245,0.931128 4.708115,-0.08508 5.637655,-2.2686 0.929144,-2.182587 -0.08613,-4.703059 -2.27338,-5.634186 -2.183516,-0.92954 -4.702659,0.0852 -5.632202,2.268719 -0.461396,1.083837 -0.441284,2.249366 -0.03918,3.264878 l -6.058385,4.438653 c 0.489654,0.53319 0.915862,1.119734 1.272346,1.745945 z" /></g></g>
	</g>
</g>
<g
   id="g19">
</g>
<g
   id="g21">
</g>
<g
   id="g23">
</g>
<g
   id="g25">
</g>
<g
   id="g27">
</g>
<g
   id="g29">
</g>
<g
   id="g31">
</g>
<g
   id="g33">
</g>
<g
   id="g35">
</g>
<g
   id="g37">
</g>
<g
   id="g39">
</g>
<g
   id="g41">
</g>
<g
   id="g43">
</g>
<g
   id="g45">
</g>
<g
   id="g47">
</g>
</svg>